<svg xmlns="http://www.w3.org/2000/svg" xmlns:xlink="http://www.w3.org/1999/xlink" width="600" zoomAndPan="magnify" viewBox="0 0 450 299.999988" height="400" preserveAspectRatio="xMidYMid meet" version="1.0"><defs><g/><clipPath id="d2b385f19c"><path d="M 115.566406 30 L 325.652344 30 L 325.652344 196 L 115.566406 196 Z M 115.566406 30 " clip-rule="nonzero"/></clipPath><clipPath id="63c289aea9"><path d="M 119 151.425781 L 312.507812 151.425781 L 312.507812 197.777344 L 119 197.777344 Z M 119 151.425781 " clip-rule="nonzero"/></clipPath></defs><g clip-path="url(#d2b385f19c)"><path fill="#7edded" d="M 317.914062 195.90625 C 254.265625 195.769531 190.621094 195.632812 126.972656 195.492188 C 125.183594 191.527344 98.40625 129.425781 134.652344 77.054688 C 139.664062 69.808594 167.664062 31.351562 216.03125 30.035156 C 267.1875 28.644531 297.960938 69.984375 302.984375 76.734375 C 341.234375 128.121094 319.960938 190.242188 317.914062 195.90625 " fill-opacity="1" fill-rule="nonzero"/></g><path fill="#75754b" d="M 153.808594 84.980469 C 166.566406 74.753906 173.070312 69.664062 179.269531 70.828125 C 189.769531 72.800781 191.492188 87.292969 199.523438 87.289062 C 208.160156 87.289062 208.832031 70.519531 218.90625 67.363281 C 229.355469 64.089844 242.132812 77.890625 276.484375 116.171875 C 283.527344 124.019531 293.921875 135.625 306.613281 149.859375 C 292.414062 143.53125 276.867188 137.464844 259.992188 132.058594 C 208.074219 115.425781 160.570312 110.484375 122.558594 110.109375 C 127.699219 105.957031 138.738281 97.058594 153.808594 84.980469 " fill-opacity="1" fill-rule="nonzero"/><path fill="#a09c47" d="M 155.253906 97.976562 C 166.304688 88.507812 171.964844 83.65625 175.796875 75.160156 C 176.546875 73.5 177.367188 71.386719 179.269531 70.828125 C 183.945312 69.457031 188.398438 79.664062 202.125 89.3125 C 208.339844 93.679688 212.597656 95.742188 213.121094 95.089844 C 213.890625 94.132812 205.714844 87.789062 207.042969 85.269531 C 208.675781 82.179688 222.601562 88.582031 225.273438 84.691406 C 227.875 80.898438 216.464844 70.558594 218.90625 67.363281 C 220.34375 65.484375 225.625 67.261719 226.988281 67.742188 C 243.9375 73.730469 254.023438 90.851562 276.484375 116.171875 C 279.253906 119.296875 281.113281 121.304688 292.742188 134.3125 C 298.722656 141 303.570312 146.441406 306.613281 149.859375 C 296.125 144.996094 280.03125 138.476562 259.992188 132.058594 C 208.074219 115.425781 160.570312 110.484375 122.558594 110.109375 C 140.945312 108.527344 150.6875 101.890625 155.253906 97.976562 " fill-opacity="1" fill-rule="nonzero"/><path fill="#255b06" d="M 175.121094 110.441406 C 200.425781 103.304688 214.875 105.445312 223.5 108.996094 C 225.945312 110.003906 231.886719 112.753906 240.660156 114.570312 C 252.3125 116.980469 253.433594 114.527344 261.335938 116.21875 C 278.59375 119.910156 278.363281 132.6875 300.203125 143.875 C 304.519531 146.085938 305.613281 148.730469 306.613281 149.859375 C 322.121094 167.378906 321.128906 193.152344 317.570312 194.152344 C 314.75 194.945312 311.746094 179.789062 295.292969 165.5625 C 290.519531 161.433594 286.296875 158.839844 281.597656 157.082031 C 273.898438 154.207031 267.417969 154.605469 262.988281 154.605469 C 262.988281 154.605469 260.5 154.605469 228.050781 152.335938 C 215.515625 151.460938 197.691406 143.300781 175.121094 110.441406 " fill-opacity="1" fill-rule="nonzero"/><path fill="#194403" d="M 175.121094 110.441406 C 178.777344 110.84375 184.148438 111.578125 190.550781 112.996094 C 200.453125 115.191406 207.421875 116.734375 214.566406 121.082031 C 224.539062 127.152344 228.171875 134.617188 229.613281 133.789062 C 230.726562 133.148438 229.792969 127.960938 220.644531 107.796875 C 234.683594 112.824219 244.148438 119.523438 250.445312 125.125 C 262.175781 135.570312 269.632812 148.226562 274.746094 146.210938 C 276.488281 145.523438 277.148438 143.460938 277.929688 141.011719 C 280.953125 131.554688 274.914062 123.066406 273.878906 121.660156 C 291.554688 137.613281 298.0625 142.753906 300.203125 143.875 C 300.574219 144.070312 302.289062 144.867188 304.007812 146.582031 C 305.371094 147.941406 306.007812 149.179688 306.613281 149.859375 C 322.121094 167.378906 321.128906 193.152344 317.570312 194.152344 C 314.75 194.945312 311.746094 179.789062 295.292969 165.5625 C 290.519531 161.433594 286.296875 158.839844 281.597656 157.082031 C 273.898438 154.207031 267.417969 154.605469 262.988281 154.605469 C 262.988281 154.605469 260.5 154.605469 228.050781 152.335938 C 215.515625 151.460938 197.691406 143.300781 175.121094 110.441406 " fill-opacity="1" fill-rule="nonzero"/><path fill="#5a8e07" d="M 297.101562 166.164062 C 306.125 173.773438 311.082031 182.996094 314.964844 190.109375 C 316.25 192.464844 317.238281 194.476562 317.914062 195.90625 C 315.902344 195.9375 312.816406 195.941406 309.066406 195.761719 C 290.289062 194.863281 276.558594 190.421875 273.589844 189.53125 C 236.734375 178.492188 136.601562 199.410156 125.453125 172.78125 C 122.988281 166.898438 125.179688 159.789062 128.058594 155.742188 C 140.289062 138.539062 182.640625 151.726562 231.925781 153.429688 C 239.453125 153.691406 246.96875 154.242188 254.496094 154.296875 C 268.347656 154.398438 271.828125 153.195312 278.222656 155.453125 C 288.339844 159.027344 295 164.390625 297.101562 166.164062 " fill-opacity="1" fill-rule="nonzero"/><path fill="#6d9e20" d="M 297.101562 166.164062 C 302.992188 170.726562 307.136719 175.339844 309.773438 178.660156 C 310.597656 179.699219 311.375 180.660156 312.328125 182.070312 C 316.304688 187.949219 318.84375 194.742188 317.925781 195.296875 C 316.964844 195.875 314.203125 188.386719 306.121094 183.515625 C 298.308594 178.804688 294.6875 181.972656 286.46875 177.734375 C 276.824219 172.757812 272.121094 163.082031 271.574219 163.484375 C 271.054688 163.871094 277.492188 171.160156 275.503906 174.222656 C 273.265625 177.679688 262.023438 173.109375 260.816406 175.667969 C 259.992188 177.421875 264.527344 181.144531 265.164062 181.65625 C 278.292969 192.292969 295.199219 192.992188 295.160156 193.839844 C 295.007812 197.148438 231.441406 193.429688 231.441406 193.429688 C 206.699219 193.429688 125.875 185.105469 125.453125 172.78125 C 125.335938 169.3125 131.601562 165.492188 134.210938 163.898438 C 141.179688 159.652344 148.246094 159.417969 151.175781 159.355469 C 185.625 158.621094 207.695312 163.8125 221.097656 157.082031 C 222.957031 156.148438 226.570312 154.023438 231.925781 153.429688 C 235.902344 152.992188 237.898438 153.792969 246.128906 154.113281 C 248.414062 154.203125 251.082031 154.269531 254.496094 154.296875 C 268.347656 154.398438 271.828125 153.195312 278.222656 155.453125 C 286.117188 158.238281 291.683594 161.964844 297.101562 166.164062 " fill-opacity="1" fill-rule="nonzero"/><g clip-path="url(#63c289aea9)"><path fill="#252623" d="M 144.523438 196.089844 C 137.09375 195.628906 130.9375 195.167969 126.726562 194.832031 C 124.238281 186.683594 121.75 178.539062 119.261719 170.390625 C 137.105469 166.636719 152.394531 164.824219 164.164062 163.894531 C 177.535156 162.839844 188.976562 162.65625 188.976562 162.65625 C 194.246094 162.566406 206.480469 162.472656 221.640625 161.003906 C 226.058594 160.578125 234.183594 159.695312 234.25 158.113281 C 234.285156 157.339844 232.382812 156.539062 230.738281 155.84375 C 228.636719 154.957031 226.769531 154.691406 225.570312 154.605469 C 225.429688 153.917969 225.292969 153.230469 225.15625 152.542969 C 227.753906 152.316406 231.132812 152.074219 235.078125 151.921875 C 239.195312 151.765625 240.953125 151.820312 250.996094 151.921875 C 257.984375 151.996094 264.730469 152.046875 273.328125 153.574219 C 276.890625 154.207031 278.949219 154.773438 279.117188 155.84375 C 279.425781 157.847656 272.957031 160.519531 268.777344 162.242188 C 259.582031 166.039062 255.46875 165.863281 252.859375 169.878906 C 252.296875 170.742188 250.84375 172.976562 251.203125 175.449219 C 251.941406 180.5 259.8125 183.730469 284.488281 189.898438 C 291.582031 191.667969 300.996094 193.917969 312.195312 196.296875 C 282.316406 197.035156 256.179688 197.417969 234.683594 197.621094 C 193.214844 198.015625 170.902344 197.714844 144.523438 196.089844 " fill-opacity="1" fill-rule="nonzero"/></g><path fill="#4d4d4d" d="M 144.523438 196.089844 C 137.289062 195.863281 131.242188 195.648438 126.972656 195.492188 C 124.945312 189.453125 122.921875 183.414062 120.894531 177.375 C 123.398438 176.183594 127.183594 174.523438 131.9375 172.984375 C 142.046875 169.710938 151.191406 168.746094 164.828125 167.203125 C 182.542969 165.195312 178.851562 164.808594 189.652344 163.898438 C 193.671875 163.558594 206.460938 162.578125 221.640625 161.003906 C 226.328125 160.519531 234.1875 159.667969 234.25 158.113281 C 234.285156 157.339844 232.382812 156.539062 230.738281 155.84375 C 228.636719 154.957031 226.769531 154.691406 225.570312 154.605469 C 225.429688 153.917969 225.292969 153.230469 225.15625 152.542969 C 227.453125 152.296875 230.890625 152 235.078125 151.921875 C 242.785156 151.78125 243.335938 152.5625 251.300781 152.746094 C 256.449219 152.867188 263.617188 152.710938 272.195312 154.398438 C 273.480469 154.652344 275.585938 155.101562 275.710938 156.050781 C 275.816406 156.824219 274.613281 157.953125 267.230469 160.800781 C 256.085938 165.097656 252.613281 164.917969 249.855469 168.441406 C 249.476562 168.925781 246.792969 172.441406 247.371094 176.289062 C 248.769531 185.589844 268.210938 189.929688 278.816406 192.1875 C 302.644531 197.269531 317.828125 195 317.914062 195.90625 C 317.925781 196.027344 254.253906 199.515625 144.523438 196.089844 " fill-opacity="1" fill-rule="nonzero"/><path fill="#7c7407" d="M 120.195312 110.105469 C 134.0625 99.25 145.035156 98.132812 151.492188 98.554688 C 162.222656 99.253906 162.050781 104.128906 185.460938 114.570312 C 202.601562 122.214844 211.023438 123.082031 217.300781 131.902344 C 218.523438 133.625 220.527344 137.453125 224.535156 145.113281 C 228.789062 153.242188 229.65625 155.589844 228.671875 157.289062 C 226.863281 160.398438 219.933594 159.503906 217.09375 159.148438 C 217.09375 159.148438 185.289062 155.148438 144.839844 157.761719 C 139.285156 158.121094 134.0625 159.261719 129.433594 163.273438 C 123.699219 168.238281 122.121094 175.300781 121.59375 179.003906 C 118.042969 169.070312 113.855469 153.007812 115.53125 133.382812 C 116.304688 124.320312 118.15625 116.480469 120.195312 110.105469 " fill-opacity="1" fill-rule="nonzero"/><path fill="#4c4505" d="M 130.082031 144.476562 C 136.929688 143.03125 143.777344 141.589844 150.625 140.144531 C 147.71875 131.332031 148.191406 128.890625 149.179688 128.304688 C 150.921875 127.265625 154.234375 132.039062 162.777344 136.101562 C 167.957031 138.5625 171.113281 140.066406 174.929688 139.566406 C 182.503906 138.578125 183.742188 130.867188 190.84375 129.167969 C 194.058594 128.398438 199.15625 128.707031 206.753906 134.65625 C 210.078125 133.457031 213.402344 132.253906 216.726562 131.054688 C 218.835938 134.683594 221.523438 139.445312 224.535156 145.113281 C 228.773438 153.09375 229.71875 155.484375 228.671875 157.289062 C 226.863281 160.398438 219.933594 159.503906 217.09375 159.148438 C 217.09375 159.148438 185.289062 155.148438 144.839844 157.761719 C 140.992188 158.011719 134.519531 158.574219 129.433594 163.273438 C 123.867188 168.414062 123.210938 176.117188 123.023438 176.070312 C 122.84375 176.027344 124.285156 169.195312 130.082031 144.476562 " fill-opacity="1" fill-rule="nonzero"/><path fill="#302a06" d="M 148.601562 156.03125 C 150.820312 151.792969 153.035156 147.558594 155.253906 143.320312 C 167.695312 147.171875 180.136719 151.023438 192.578125 154.875 C 188.429688 151.3125 184.285156 147.75 180.136719 144.1875 C 185.25 141.394531 190.359375 138.605469 195.472656 135.8125 C 199.328125 137.351562 203.1875 138.894531 207.042969 140.433594 C 209.9375 143.707031 212.832031 146.980469 215.726562 150.253906 C 219.832031 150.949219 223.941406 151.640625 228.050781 152.335938 C 228.28125 154.242188 228.511719 156.144531 228.746094 158.050781 C 225.183594 159.3125 221.304688 159.707031 217.09375 159.148438 C 206.246094 156.980469 202.941406 156.859375 197.242188 156.851562 C 196.351562 156.847656 195.789062 156.867188 194.890625 156.894531 C 174.050781 157.515625 162.996094 156.386719 149.46875 158.339844 C 144.574219 159.046875 137.648438 160.402344 129.433594 163.273438 C 127.042969 167.019531 124.65625 170.769531 122.269531 174.515625 C 124.296875 167.003906 126.320312 159.496094 128.347656 151.988281 C 135.097656 153.335938 141.847656 154.679688 148.601562 156.03125 " fill-opacity="1" fill-rule="nonzero"/><path fill="#406003" d="M 279.667969 160.9375 C 281.296875 159.511719 282.113281 158.800781 282.59375 158.472656 C 286.132812 156.046875 292.046875 156.328125 292.632812 158.042969 C 293.164062 159.585938 289.695312 161.6875 290.195312 162.480469 C 290.902344 163.609375 297.734375 159.097656 299.804688 161.050781 C 301.203125 162.367188 299.136719 166.40625 298.371094 167.921875 C 297.4375 169.765625 296.394531 171.839844 294.132812 172.78125 C 292.742188 173.359375 291.542969 173.226562 289.191406 172.933594 C 286.304688 172.574219 283.90625 172.273438 281.445312 170.640625 C 279.222656 169.167969 276.128906 166.058594 276.855469 163.769531 C 277.015625 163.265625 277.902344 162.484375 279.667969 160.9375 " fill-opacity="1" fill-rule="nonzero"/><path fill="#547212" d="M 279.347656 162.425781 C 279.371094 160.753906 281.0625 159.554688 282.59375 158.472656 C 283.855469 157.578125 285.324219 156.539062 287.484375 156.367188 C 289.308594 156.21875 292.203125 156.636719 292.632812 158.042969 C 293.152344 159.734375 289.75 161.695312 290.195312 162.480469 C 290.859375 163.65625 298.65625 159.472656 299.804688 161.050781 C 300.453125 161.9375 299.023438 164.695312 296.785156 166.035156 C 293.808594 167.820312 290.109375 166.675781 289.9375 167.453125 C 289.800781 168.085938 292.253906 168.785156 292.132812 169.644531 C 292.03125 170.410156 289.964844 170.851562 288.386719 170.804688 C 286.066406 170.738281 284.367188 169.605469 283.738281 169.128906 C 282.660156 168.320312 281.988281 167.257812 280.640625 165.132812 C 279.769531 163.765625 279.335938 163.070312 279.347656 162.425781 " fill-opacity="1" fill-rule="nonzero"/><path fill="#ffffff" d="M 213.730469 188.234375 C 211.554688 186.351562 209.902344 184.300781 208.875 182.167969 C 208.1875 182.179688 207.5 182.1875 206.816406 182.195312 C 207.695312 184.339844 209.113281 186.390625 210.996094 188.292969 C 211.90625 188.273438 212.816406 188.25 213.730469 188.234375 " fill-opacity="1" fill-rule="nonzero"/><path fill="#ffffff" d="M 219.824219 192.75 C 217.726562 191.613281 215.855469 190.351562 214.253906 189 C 213.324219 189.015625 212.390625 189.027344 211.460938 189.039062 C 212.820312 190.386719 214.421875 191.652344 216.230469 192.824219 C 217.425781 192.796875 218.625 192.773438 219.824219 192.75 " fill-opacity="1" fill-rule="nonzero"/><path fill="#ffffff" d="M 228.613281 197.335938 L 228.65625 197.191406 C 225.726562 196.324219 223.027344 195.246094 220.609375 194.003906 C 219.949219 194.015625 218.46875 194.039062 216.855469 194.0625 C 218.882812 195.316406 221.15625 196.453125 223.644531 197.441406 C 225 197.394531 226.945312 197.359375 228.613281 197.335938 " fill-opacity="1" fill-rule="nonzero"/><path fill="#b3b7ae" d="M 221.605469 167.855469 C 219.03125 168.332031 215.441406 169.300781 211.695312 171.40625 C 209.722656 172.519531 208.125 173.710938 206.867188 174.796875 C 207.484375 175.144531 208.101562 175.488281 208.71875 175.832031 C 211.394531 173.632812 214.988281 171.253906 219.621094 169.464844 C 220.679688 169.054688 221.71875 168.703125 222.722656 168.40625 C 222.351562 168.222656 221.976562 168.042969 221.605469 167.855469 " fill-opacity="1" fill-rule="nonzero"/><path fill="#b3b7ae" d="M 236.675781 153.769531 C 238.132812 153.878906 239.464844 154.054688 240.660156 154.257812 C 240.613281 154.183594 240.542969 154.074219 240.425781 153.957031 C 239.652344 153.15625 238.105469 153.019531 236.835938 152.964844 C 233.605469 152.820312 230.074219 153.097656 228.773438 153.210938 C 228.804688 153.4375 228.835938 153.664062 228.867188 153.890625 C 230.992188 153.667969 233.652344 153.546875 236.675781 153.769531 " fill-opacity="1" fill-rule="nonzero"/><path fill="#b3b7ae" d="M 243.414062 161 C 244.085938 160.984375 244.757812 160.976562 245.433594 160.964844 C 247.289062 160.199219 248.476562 159.542969 249.21875 158.972656 C 248.054688 158.992188 246.890625 159.011719 245.726562 159.027344 C 244.308594 159.652344 242.441406 160.351562 240.261719 161.058594 C 241.3125 161.035156 242.363281 161.015625 243.414062 161 " fill-opacity="1" fill-rule="nonzero"/><path fill="#b3b7ae" d="M 241.46875 162.417969 C 239.746094 162.449219 238.023438 162.472656 236.304688 162.484375 C 236.015625 162.488281 235.730469 162.484375 235.445312 162.488281 C 233.523438 163.007812 231.476562 163.507812 229.347656 163.96875 C 228.683594 164.109375 228.046875 164.238281 227.417969 164.363281 C 229.78125 164.320312 232.148438 164.285156 234.515625 164.265625 C 234.351562 164.269531 234.730469 164.265625 235.238281 164.261719 C 237.433594 163.679688 239.5625 163.050781 241.46875 162.417969 " fill-opacity="1" fill-rule="nonzero"/><path fill="#ffed00" d="M 72.285156 170.347656 L 367.316406 170.347656 C 368.863281 170.347656 370.34375 170.960938 371.433594 172.050781 C 372.527344 173.140625 373.140625 174.621094 373.140625 176.164062 L 373.140625 242.109375 C 373.140625 243.652344 372.527344 245.132812 371.433594 246.222656 C 370.34375 247.316406 368.863281 247.929688 367.316406 247.929688 L 72.285156 247.929688 C 69.066406 247.929688 66.460938 245.324219 66.460938 242.109375 L 66.460938 176.164062 C 66.460938 172.953125 69.066406 170.347656 72.285156 170.347656 " fill-opacity="1" fill-rule="nonzero"/><g fill="#000000" fill-opacity="1"><g transform="translate(83.665857, 221.931258)"><g><path d="M 17.023438 -4.515625 C 15.90625 -4.515625 14.917969 -4.816406 14.058594 -5.460938 C 13.195312 -6.105469 12.507812 -6.964844 11.949219 -8.039062 C 11.390625 -9.070312 10.960938 -10.273438 10.703125 -11.648438 C 10.402344 -12.980469 10.273438 -14.359375 10.273438 -15.777344 C 10.273438 -17.152344 10.402344 -18.527344 10.703125 -19.859375 C 10.960938 -21.191406 11.390625 -22.394531 11.949219 -23.472656 C 12.507812 -24.503906 13.195312 -25.363281 14.058594 -26.007812 C 14.917969 -26.652344 15.90625 -26.996094 17.023438 -26.996094 C 17.839844 -26.996094 18.613281 -26.78125 19.300781 -26.4375 C 19.988281 -26.09375 20.589844 -25.707031 21.105469 -25.320312 C 21.664062 -24.804688 22.179688 -24.246094 22.65625 -23.644531 L 26.050781 -26.996094 C 25.320312 -27.8125 24.460938 -28.542969 23.515625 -29.230469 C 22.65625 -29.789062 21.621094 -30.304688 20.332031 -30.777344 C 19.042969 -31.25 17.582031 -31.511719 15.90625 -31.511719 C 13.453125 -31.511719 11.304688 -31.035156 9.5 -30.132812 C 7.695312 -29.230469 6.148438 -28.027344 4.945312 -26.566406 C 3.738281 -25.0625 2.792969 -23.386719 2.191406 -21.492188 C 1.589844 -19.601562 1.289062 -17.667969 1.289062 -15.691406 C 1.289062 -13.714844 1.589844 -11.777344 2.191406 -9.886719 C 2.792969 -7.996094 3.695312 -6.363281 4.902344 -4.902344 C 6.105469 -3.4375 7.652344 -2.234375 9.5 -1.332031 C 11.304688 -0.429688 13.453125 0 15.90625 0 C 17.582031 0 19.042969 -0.214844 20.332031 -0.6875 C 21.621094 -1.117188 22.65625 -1.632812 23.515625 -2.234375 C 24.460938 -2.878906 25.320312 -3.652344 26.050781 -4.515625 L 22.65625 -7.867188 C 22.179688 -7.222656 21.664062 -6.664062 21.105469 -6.191406 C 20.589844 -5.761719 19.988281 -5.375 19.300781 -5.03125 C 18.613281 -4.6875 17.839844 -4.515625 17.023438 -4.515625 Z M 17.023438 -4.515625 "/></g></g></g><g fill="#000000" fill-opacity="1"><g transform="translate(111.005922, 221.931258)"><g><path d="M 15.691406 -32.542969 C 13.28125 -32.542969 11.175781 -32.027344 9.371094 -31.078125 C 7.566406 -30.132812 6.105469 -28.84375 4.902344 -27.296875 C 3.695312 -25.707031 2.792969 -23.902344 2.191406 -21.921875 C 1.589844 -19.902344 1.289062 -17.839844 1.289062 -15.777344 C 1.289062 -13.628906 1.589844 -11.5625 2.191406 -9.585938 C 2.792969 -7.566406 3.695312 -5.761719 4.902344 -4.210938 C 6.105469 -2.621094 7.566406 -1.332031 9.371094 -0.386719 C 11.175781 0.558594 13.28125 1.03125 15.691406 1.03125 C 18.097656 1.03125 20.160156 0.558594 21.964844 -0.386719 C 23.773438 -1.332031 25.277344 -2.621094 26.480469 -4.210938 C 27.683594 -5.761719 28.585938 -7.566406 29.1875 -9.585938 C 29.789062 -11.5625 30.089844 -13.628906 30.089844 -15.777344 C 30.089844 -17.839844 29.789062 -19.902344 29.1875 -21.921875 C 28.585938 -23.902344 27.683594 -25.707031 26.480469 -27.296875 C 25.277344 -28.84375 23.773438 -30.132812 21.964844 -31.078125 C 20.160156 -32.027344 18.097656 -32.542969 15.691406 -32.542969 Z M 15.691406 -3.78125 C 15.089844 -3.78125 14.488281 -3.996094 13.929688 -4.46875 C 13.324219 -4.902344 12.808594 -5.632812 12.378906 -6.621094 C 11.90625 -7.566406 11.519531 -8.8125 11.261719 -10.316406 C 11.003906 -11.820312 10.875 -13.628906 10.875 -15.777344 C 10.875 -17.839844 11.003906 -19.644531 11.261719 -21.191406 C 11.519531 -22.699219 11.90625 -23.945312 12.378906 -24.933594 C 12.808594 -25.878906 13.324219 -26.609375 13.929688 -27.082031 C 14.488281 -27.511719 15.089844 -27.769531 15.691406 -27.769531 C 16.292969 -27.769531 16.851562 -27.511719 17.453125 -27.082031 C 18.011719 -26.609375 18.527344 -25.878906 19 -24.933594 C 19.429688 -23.945312 19.816406 -22.699219 20.074219 -21.191406 C 20.332031 -19.644531 20.503906 -17.839844 20.503906 -15.777344 C 20.503906 -13.628906 20.332031 -11.820312 20.074219 -10.316406 C 19.816406 -8.8125 19.429688 -7.566406 19 -6.621094 C 18.527344 -5.632812 18.011719 -4.902344 17.453125 -4.46875 C 16.851562 -3.996094 16.292969 -3.78125 15.691406 -3.78125 Z M 15.691406 -3.78125 "/></g></g></g><g fill="#000000" fill-opacity="1"><g transform="translate(142.386806, 221.931258)"><g><path d="M 15.691406 -32.542969 C 13.28125 -32.542969 11.175781 -32.027344 9.371094 -31.078125 C 7.566406 -30.132812 6.105469 -28.84375 4.902344 -27.296875 C 3.695312 -25.707031 2.792969 -23.902344 2.191406 -21.921875 C 1.589844 -19.902344 1.289062 -17.839844 1.289062 -15.777344 C 1.289062 -13.628906 1.589844 -11.5625 2.191406 -9.585938 C 2.792969 -7.566406 3.695312 -5.761719 4.902344 -4.210938 C 6.105469 -2.621094 7.566406 -1.332031 9.371094 -0.386719 C 11.175781 0.558594 13.28125 1.03125 15.691406 1.03125 C 18.097656 1.03125 20.160156 0.558594 21.964844 -0.386719 C 23.773438 -1.332031 25.277344 -2.621094 26.480469 -4.210938 C 27.683594 -5.761719 28.585938 -7.566406 29.1875 -9.585938 C 29.789062 -11.5625 30.089844 -13.628906 30.089844 -15.777344 C 30.089844 -17.839844 29.789062 -19.902344 29.1875 -21.921875 C 28.585938 -23.902344 27.683594 -25.707031 26.480469 -27.296875 C 25.277344 -28.84375 23.773438 -30.132812 21.964844 -31.078125 C 20.160156 -32.027344 18.097656 -32.542969 15.691406 -32.542969 Z M 15.691406 -3.78125 C 15.089844 -3.78125 14.488281 -3.996094 13.929688 -4.46875 C 13.324219 -4.902344 12.808594 -5.632812 12.378906 -6.621094 C 11.90625 -7.566406 11.519531 -8.8125 11.261719 -10.316406 C 11.003906 -11.820312 10.875 -13.628906 10.875 -15.777344 C 10.875 -17.839844 11.003906 -19.644531 11.261719 -21.191406 C 11.519531 -22.699219 11.90625 -23.945312 12.378906 -24.933594 C 12.808594 -25.878906 13.324219 -26.609375 13.929688 -27.082031 C 14.488281 -27.511719 15.089844 -27.769531 15.691406 -27.769531 C 16.292969 -27.769531 16.851562 -27.511719 17.453125 -27.082031 C 18.011719 -26.609375 18.527344 -25.878906 19 -24.933594 C 19.429688 -23.945312 19.816406 -22.699219 20.074219 -21.191406 C 20.332031 -19.644531 20.503906 -17.839844 20.503906 -15.777344 C 20.503906 -13.628906 20.332031 -11.820312 20.074219 -10.316406 C 19.816406 -8.8125 19.429688 -7.566406 19 -6.621094 C 18.527344 -5.632812 18.011719 -4.902344 17.453125 -4.46875 C 16.851562 -3.996094 16.292969 -3.78125 15.691406 -3.78125 Z M 15.691406 -3.78125 "/></g></g></g><g fill="#000000" fill-opacity="1"><g transform="translate(173.76769, 221.931258)"><g><path d="M 21.277344 0 L 20.160156 -6.75 L 11.132812 -6.75 L 11.132812 -31.511719 L 2.148438 -31.511719 L 2.148438 0 Z M 21.277344 0 "/></g></g></g><g fill="#000000" fill-opacity="1"><g transform="translate(195.90627, 221.931258)"><g><path d="M 2.148438 -31.511719 L 2.148438 0 L 8.898438 0 L 8.898438 -18.914062 L 19.042969 0 L 29.144531 0 L 29.144531 -31.511719 L 22.394531 -31.511719 L 22.394531 -12.59375 L 12.292969 -31.511719 Z M 2.148438 -31.511719 "/></g></g></g><g fill="#000000" fill-opacity="1"><g transform="translate(227.201181, 221.931258)"><g><path d="M 15.691406 -32.542969 C 13.28125 -32.542969 11.175781 -32.027344 9.371094 -31.078125 C 7.566406 -30.132812 6.105469 -28.84375 4.902344 -27.296875 C 3.695312 -25.707031 2.792969 -23.902344 2.191406 -21.921875 C 1.589844 -19.902344 1.289062 -17.839844 1.289062 -15.777344 C 1.289062 -13.628906 1.589844 -11.5625 2.191406 -9.585938 C 2.792969 -7.566406 3.695312 -5.761719 4.902344 -4.210938 C 6.105469 -2.621094 7.566406 -1.332031 9.371094 -0.386719 C 11.175781 0.558594 13.28125 1.03125 15.691406 1.03125 C 18.097656 1.03125 20.160156 0.558594 21.964844 -0.386719 C 23.773438 -1.332031 25.277344 -2.621094 26.480469 -4.210938 C 27.683594 -5.761719 28.585938 -7.566406 29.1875 -9.585938 C 29.789062 -11.5625 30.089844 -13.628906 30.089844 -15.777344 C 30.089844 -17.839844 29.789062 -19.902344 29.1875 -21.921875 C 28.585938 -23.902344 27.683594 -25.707031 26.480469 -27.296875 C 25.277344 -28.84375 23.773438 -30.132812 21.964844 -31.078125 C 20.160156 -32.027344 18.097656 -32.542969 15.691406 -32.542969 Z M 15.691406 -3.78125 C 15.089844 -3.78125 14.488281 -3.996094 13.929688 -4.46875 C 13.324219 -4.902344 12.808594 -5.632812 12.378906 -6.621094 C 11.90625 -7.566406 11.519531 -8.8125 11.261719 -10.316406 C 11.003906 -11.820312 10.875 -13.628906 10.875 -15.777344 C 10.875 -17.839844 11.003906 -19.644531 11.261719 -21.191406 C 11.519531 -22.699219 11.90625 -23.945312 12.378906 -24.933594 C 12.808594 -25.878906 13.324219 -26.609375 13.929688 -27.082031 C 14.488281 -27.511719 15.089844 -27.769531 15.691406 -27.769531 C 16.292969 -27.769531 16.851562 -27.511719 17.453125 -27.082031 C 18.011719 -26.609375 18.527344 -25.878906 19 -24.933594 C 19.429688 -23.945312 19.816406 -22.699219 20.074219 -21.191406 C 20.332031 -19.644531 20.503906 -17.839844 20.503906 -15.777344 C 20.503906 -13.628906 20.332031 -11.820312 20.074219 -10.316406 C 19.816406 -8.8125 19.429688 -7.566406 19 -6.621094 C 18.527344 -5.632812 18.011719 -4.902344 17.453125 -4.46875 C 16.851562 -3.996094 16.292969 -3.78125 15.691406 -3.78125 Z M 15.691406 -3.78125 "/></g></g></g><g fill="#000000" fill-opacity="1"><g transform="translate(258.582065, 221.931258)"><g><path d="M 35.894531 -31.511719 L 24.675781 -31.511719 L 19.042969 -11.820312 L 13.410156 -31.511719 L 2.148438 -31.511719 L 2.148438 0 L 8.898438 0 L 8.898438 -15.734375 L 13.410156 0 L 22.394531 0 L 26.910156 -15.734375 L 26.910156 0 L 35.894531 0 Z M 35.894531 -31.511719 "/></g></g></g><g fill="#000000" fill-opacity="1"><g transform="translate(296.626016, 221.931258)"><g><path d="M 16.292969 -8.984375 L 18.871094 0 L 27.855469 0 L 18.871094 -31.511719 L 9.84375 -31.511719 L 0.859375 0 L 7.609375 0 L 10.1875 -8.984375 Z M 15.003906 -13.5 L 11.476562 -13.5 L 13.238281 -19.6875 Z M 15.003906 -13.5 "/></g></g></g><g fill="#000000" fill-opacity="1"><g transform="translate(325.341674, 221.931258)"><g><path d="M 14.53125 -31.511719 L 2.148438 -31.511719 L 2.148438 0 L 14.53125 0 C 16.765625 0 18.785156 -0.429688 20.589844 -1.332031 C 22.394531 -2.234375 23.902344 -3.4375 25.191406 -4.902344 C 26.480469 -6.363281 27.425781 -8.039062 28.113281 -9.929688 C 28.800781 -11.820312 29.144531 -13.757812 29.144531 -15.734375 C 29.144531 -17.410156 28.84375 -19.171875 28.285156 -21.0625 C 27.683594 -22.914062 26.824219 -24.632812 25.621094 -26.179688 C 24.417969 -27.726562 22.914062 -28.972656 21.0625 -30.003906 C 19.214844 -30.992188 17.023438 -31.511719 14.53125 -31.511719 Z M 13.410156 -4.515625 L 11.132812 -4.515625 L 11.132812 -26.996094 L 13.410156 -26.996094 C 14.53125 -26.996094 15.476562 -26.652344 16.335938 -26.007812 C 17.195312 -25.363281 17.882812 -24.503906 18.441406 -23.472656 C 19 -22.394531 19.429688 -21.191406 19.730469 -19.859375 C 19.988281 -18.484375 20.160156 -17.109375 20.160156 -15.734375 C 20.160156 -14.316406 19.988281 -12.9375 19.730469 -11.605469 C 19.429688 -10.230469 19 -9.027344 18.441406 -7.996094 C 17.882812 -6.964844 17.195312 -6.105469 16.335938 -5.460938 C 15.476562 -4.816406 14.53125 -4.515625 13.410156 -4.515625 Z M 13.410156 -4.515625 "/></g></g></g></svg>